<svg width="2176" height="469" viewBox="0 0 2176 469" fill="none" xmlns="http://www.w3.org/2000/svg">
<g filter="url(#filter0_dii_35_18)">
<rect x="29" y="10" width="500" height="400" rx="60" fill="#6D4AB5"/>
</g>
<path d="M239.48 279.767L169.56 210L239.48 140.233L218.2 119L127 210L218.2 301L239.48 279.767ZM318.52 279.767L388.44 210L318.52 140.233L339.8 119L431 210L339.8 301L318.52 279.767V279.767Z" fill="white"/>
<g filter="url(#filter1_d_35_18)">
<path d="M668.64 112.56C689.173 112.56 707.187 116.573 722.68 124.6C738.36 132.627 750.4 144.107 758.8 159.04C767.387 173.787 771.68 190.96 771.68 210.56C771.68 230.16 767.387 247.333 758.8 262.08C750.4 276.64 738.36 287.933 722.68 295.96C707.187 303.987 689.173 308 668.64 308H600.32V112.56H668.64ZM667.24 274.68C687.773 274.68 703.64 269.08 714.84 257.88C726.04 246.68 731.64 230.907 731.64 210.56C731.64 190.213 726.04 174.347 714.84 162.96C703.64 151.387 687.773 145.6 667.24 145.6H639.52V274.68H667.24ZM860.383 310.52C847.69 310.52 836.303 308.28 826.223 303.8C816.143 299.133 808.116 292.88 802.143 285.04C796.356 277.2 793.183 268.52 792.623 259H832.103C832.85 264.973 835.743 269.92 840.783 273.84C846.01 277.76 852.45 279.72 860.103 279.72C867.57 279.72 873.356 278.227 877.463 275.24C881.756 272.253 883.903 268.427 883.903 263.76C883.903 258.72 881.29 254.987 876.063 252.56C871.023 249.947 862.903 247.147 851.703 244.16C840.13 241.36 830.61 238.467 823.143 235.48C815.863 232.493 809.516 227.92 804.103 221.76C798.876 215.6 796.263 207.293 796.263 196.84C796.263 188.253 798.69 180.413 803.543 173.32C808.583 166.227 815.676 160.627 824.823 156.52C834.156 152.413 845.076 150.36 857.583 150.36C876.063 150.36 890.81 155.027 901.823 164.36C912.836 173.507 918.903 185.92 920.023 201.6H882.503C881.943 195.44 879.33 190.587 874.663 187.04C870.183 183.307 864.116 181.44 856.463 181.44C849.37 181.44 843.863 182.747 839.943 185.36C836.21 187.973 834.343 191.613 834.343 196.28C834.343 201.507 836.956 205.52 842.183 208.32C847.41 210.933 855.53 213.64 866.543 216.44C877.743 219.24 886.983 222.133 894.263 225.12C901.543 228.107 907.796 232.773 913.023 239.12C918.436 245.28 921.236 253.493 921.423 263.76C921.423 272.72 918.903 280.747 913.863 287.84C909.01 294.933 901.916 300.533 892.583 304.64C883.436 308.56 872.703 310.52 860.383 310.52ZM943.521 229.88C943.521 214.2 946.601 200.293 952.761 188.16C959.108 176.027 967.601 166.693 978.241 160.16C989.068 153.627 1001.11 150.36 1014.36 150.36C1025.93 150.36 1036.01 152.693 1044.6 157.36C1053.37 162.027 1060.37 167.907 1065.6 175V152.88H1105.08V308H1065.6V285.32C1060.56 292.6 1053.56 298.667 1044.6 303.52C1035.83 308.187 1025.65 310.52 1014.08 310.52C1001.01 310.52 989.068 307.16 978.241 300.44C967.601 293.72 959.108 284.293 952.761 272.16C946.601 259.84 943.521 245.747 943.521 229.88ZM1065.6 230.44C1065.6 220.92 1063.73 212.8 1060 206.08C1056.27 199.173 1051.23 193.947 1044.88 190.4C1038.53 186.667 1031.72 184.8 1024.44 184.8C1017.16 184.8 1010.44 186.573 1004.28 190.12C998.121 193.667 993.081 198.893 989.161 205.8C985.428 212.52 983.561 220.547 983.561 229.88C983.561 239.213 985.428 247.427 989.161 254.52C993.081 261.427 998.121 266.747 1004.28 270.48C1010.63 274.213 1017.35 276.08 1024.44 276.08C1031.72 276.08 1038.53 274.307 1044.88 270.76C1051.23 267.027 1056.27 261.8 1060 255.08C1063.73 248.173 1065.6 239.96 1065.6 230.44ZM1189.01 185.08V260.12C1189.01 265.347 1190.22 269.173 1192.65 271.6C1195.26 273.84 1199.55 274.96 1205.53 274.96H1223.73V308H1199.09C1166.05 308 1149.53 291.947 1149.53 259.84V185.08H1131.05V152.88H1149.53V114.52H1189.01V152.88H1223.73V185.08H1189.01ZM1291.12 176.96C1296.16 168.747 1302.69 162.307 1310.72 157.64C1318.93 152.973 1328.27 150.64 1338.72 150.64V191.8H1328.36C1316.04 191.8 1306.71 194.693 1300.36 200.48C1294.2 206.267 1291.12 216.347 1291.12 230.72V308H1251.92V152.88H1291.12V176.96ZM1355.04 229.88C1355.04 214.2 1358.12 200.293 1364.28 188.16C1370.63 176.027 1379.12 166.693 1389.76 160.16C1400.59 153.627 1412.63 150.36 1425.88 150.36C1437.46 150.36 1447.54 152.693 1456.12 157.36C1464.9 162.027 1471.9 167.907 1477.12 175V152.88H1516.6V308H1477.12V285.32C1472.08 292.6 1465.08 298.667 1456.12 303.52C1447.35 308.187 1437.18 310.52 1425.6 310.52C1412.54 310.52 1400.59 307.16 1389.76 300.44C1379.12 293.72 1370.63 284.293 1364.28 272.16C1358.12 259.84 1355.04 245.747 1355.04 229.88ZM1477.12 230.44C1477.12 220.92 1475.26 212.8 1471.52 206.08C1467.79 199.173 1462.75 193.947 1456.4 190.4C1450.06 186.667 1443.24 184.8 1435.96 184.8C1428.68 184.8 1421.96 186.573 1415.8 190.12C1409.64 193.667 1404.6 198.893 1400.68 205.8C1396.95 212.52 1395.08 220.547 1395.08 229.88C1395.08 239.213 1396.95 247.427 1400.68 254.52C1404.6 261.427 1409.64 266.747 1415.8 270.48C1422.15 274.213 1428.87 276.08 1435.96 276.08C1443.24 276.08 1450.06 274.307 1456.4 270.76C1462.75 267.027 1467.79 261.8 1471.52 255.08C1475.26 248.173 1477.12 239.96 1477.12 230.44ZM1544.81 230.44C1544.81 214.387 1548.08 200.387 1554.61 188.44C1561.14 176.307 1570.2 166.973 1581.77 160.44C1593.34 153.72 1606.6 150.36 1621.53 150.36C1640.76 150.36 1656.62 155.213 1669.13 164.92C1681.82 174.44 1690.32 187.88 1694.61 205.24H1652.33C1650.09 198.52 1646.26 193.293 1640.85 189.56C1635.62 185.64 1629.09 183.68 1621.25 183.68C1610.05 183.68 1601.18 187.787 1594.65 196C1588.12 204.027 1584.85 215.507 1584.85 230.44C1584.85 245.187 1588.12 256.667 1594.65 264.88C1601.18 272.907 1610.05 276.92 1621.25 276.92C1637.12 276.92 1647.48 269.827 1652.33 255.64H1694.61C1690.32 272.44 1681.82 285.787 1669.13 295.68C1656.44 305.573 1640.57 310.52 1621.53 310.52C1606.6 310.52 1593.34 307.253 1581.77 300.72C1570.2 294 1561.14 284.667 1554.61 272.72C1548.08 260.587 1544.81 246.493 1544.81 230.44ZM1815.17 308L1762.53 241.92V308H1723.33V100.8H1762.53V218.68L1814.61 152.88H1865.57L1797.25 230.72L1866.13 308H1815.17ZM2031.04 227.08C2031.04 232.68 2030.67 237.72 2029.92 242.2H1916.52C1917.46 253.4 1921.38 262.173 1928.28 268.52C1935.19 274.867 1943.68 278.04 1953.76 278.04C1968.32 278.04 1978.68 271.787 1984.84 259.28H2027.12C2022.64 274.213 2014.06 286.533 2001.36 296.24C1988.67 305.76 1973.08 310.52 1954.6 310.52C1939.67 310.52 1926.23 307.253 1914.28 300.72C1902.52 294 1893.28 284.573 1886.56 272.44C1880.03 260.307 1876.76 246.307 1876.76 230.44C1876.76 214.387 1880.03 200.293 1886.56 188.16C1893.1 176.027 1902.24 166.693 1914 160.16C1925.76 153.627 1939.3 150.36 1954.6 150.36C1969.35 150.36 1982.51 153.533 1994.08 159.88C2005.84 166.227 2014.9 175.28 2021.24 187.04C2027.78 198.613 2031.04 211.96 2031.04 227.08ZM1990.44 215.88C1990.26 205.8 1986.62 197.773 1979.52 191.8C1972.43 185.64 1963.75 182.56 1953.48 182.56C1943.78 182.56 1935.56 185.547 1928.84 191.52C1922.31 197.307 1918.3 205.427 1916.8 215.88H1990.44ZM2098.86 176.96C2103.9 168.747 2110.43 162.307 2118.46 157.64C2126.67 152.973 2136 150.64 2146.46 150.64V191.8H2136.1C2123.78 191.8 2114.44 194.693 2108.1 200.48C2101.94 206.267 2098.86 216.347 2098.86 230.72V308H2059.66V152.88H2098.86V176.96Z" fill="#6D4AB5"/>
</g>
<defs>
<filter id="filter0_dii_35_18" x="0" y="6" width="558" height="463" filterUnits="userSpaceOnUse" color-interpolation-filters="sRGB">
<feFlood flood-opacity="0" result="BackgroundImageFix"/>
<feColorMatrix in="SourceAlpha" type="matrix" values="0 0 0 0 0 0 0 0 0 0 0 0 0 0 0 0 0 0 127 0" result="hardAlpha"/>
<feOffset dy="30"/>
<feGaussianBlur stdDeviation="14.5"/>
<feComposite in2="hardAlpha" operator="out"/>
<feColorMatrix type="matrix" values="0 0 0 0 0.427451 0 0 0 0 0.290196 0 0 0 0 0.709804 0 0 0 0.37 0"/>
<feBlend mode="normal" in2="BackgroundImageFix" result="effect1_dropShadow_35_18"/>
<feBlend mode="normal" in="SourceGraphic" in2="effect1_dropShadow_35_18" result="shape"/>
<feColorMatrix in="SourceAlpha" type="matrix" values="0 0 0 0 0 0 0 0 0 0 0 0 0 0 0 0 0 0 127 0" result="hardAlpha"/>
<feOffset dx="-4" dy="-4"/>
<feGaussianBlur stdDeviation="10"/>
<feComposite in2="hardAlpha" operator="arithmetic" k2="-1" k3="1"/>
<feColorMatrix type="matrix" values="0 0 0 0 0.367605 0 0 0 0 0.236406 0 0 0 0 0.6375 0 0 0 1 0"/>
<feBlend mode="normal" in2="shape" result="effect2_innerShadow_35_18"/>
<feColorMatrix in="SourceAlpha" type="matrix" values="0 0 0 0 0 0 0 0 0 0 0 0 0 0 0 0 0 0 127 0" result="hardAlpha"/>
<feOffset dx="4" dy="4"/>
<feGaussianBlur stdDeviation="10"/>
<feComposite in2="hardAlpha" operator="arithmetic" k2="-1" k3="1"/>
<feColorMatrix type="matrix" values="0 0 0 0 0.368627 0 0 0 0 0.235294 0 0 0 0 0.639216 0 0 0 1 0"/>
<feBlend mode="normal" in2="effect2_innerShadow_35_18" result="effect3_innerShadow_35_18"/>
</filter>
<filter id="filter1_d_35_18" x="571.32" y="100.8" width="1604.14" height="275.72" filterUnits="userSpaceOnUse" color-interpolation-filters="sRGB">
<feFlood flood-opacity="0" result="BackgroundImageFix"/>
<feColorMatrix in="SourceAlpha" type="matrix" values="0 0 0 0 0 0 0 0 0 0 0 0 0 0 0 0 0 0 127 0" result="hardAlpha"/>
<feOffset dy="37"/>
<feGaussianBlur stdDeviation="14.5"/>
<feComposite in2="hardAlpha" operator="out"/>
<feColorMatrix type="matrix" values="0 0 0 0 0.427451 0 0 0 0 0.290196 0 0 0 0 0.709804 0 0 0 0.37 0"/>
<feBlend mode="normal" in2="BackgroundImageFix" result="effect1_dropShadow_35_18"/>
<feBlend mode="normal" in="SourceGraphic" in2="effect1_dropShadow_35_18" result="shape"/>
</filter>
</defs>
</svg>
